<svg xmlns="http://www.w3.org/2000/svg" version="1.1"
  xmlns:xlink="http://www.w3.org/1999/xlink"
  xmlns:svgjs="http://svgjs.com/svgjs" viewBox="0 0 512.001 512.001" style="enable-background:new 0 0 512 512" xml:space="preserve">
  <g>
    <path d="M184.356 329.217c-3.936 3.934-10.317 3.934-14.253 0l-47.217-47.192a10.072 10.072 0 0 1-.001-14.247l47.218-47.193c3.937-3.935 10.317-3.935 14.253 0l47.217 47.193a10.07 10.07 0 0 1 0 14.247l-47.217 47.192z" style="" fill="#f48911" data-original="#f48911"></path>
    <path d="m322.024 316.249-31.04-134.69a14.662 14.662 0 0 0-14.291-11.368h-41.384a14.664 14.664 0 0 0-14.292 11.368l-31.04 134.69h132.047z" style="" fill="#e0d9af" data-original="#e0d9af"></path>
    <path d="m223.289 316.249 31.041-134.69a14.663 14.663 0 0 1 14.292-11.368H235.31a14.664 14.664 0 0 0-14.292 11.368l-31.04 134.69h33.311z" style="opacity:0.1;enable-background:new ;" fill="#000000" data-original="#000000"></path>
    <path d="M351.92 356.98c-3.936 3.934-10.317 3.934-14.253 0l-47.216-47.193c-3.937-3.934-3.937-10.311-.001-14.246l47.217-47.193c3.936-3.932 10.316-3.932 14.253 0l47.217 47.193c3.936 3.935 3.936 10.312 0 14.246L351.92 356.98z" style="" fill="#b0ce6f" data-original="#b0ce6f"></path>
    <path d="M300.456 417.799h-88.908l-26.769 65.207a10.068 10.068 0 0 0 .953 9.434 10.077 10.077 0 0 0 8.372 4.464H317.9a10.074 10.074 0 0 0 9.325-13.898l-26.769-65.207z" style="" fill="#b3b3b3" data-original="#b3b3b3"></path>
    <path d="M100.406 322.781c0 11.475-9.307 20.778-20.788 20.778H30.482c-11.481 0-20.788-9.303-20.788-20.778 0-11.475 9.307-20.778 20.788-20.778h49.135c11.482.001 20.789 9.303 20.789 20.778zM502.309 322.781c0 11.475-9.308 20.778-20.788 20.778h-49.136c-11.479 0-20.787-9.303-20.787-20.778 0-11.475 9.307-20.778 20.787-20.778h49.136c11.48.001 20.788 9.303 20.788 20.778z" style="" fill="#c6ba83" data-original="#c6ba83"></path>
    <ellipse cx="192.378" cy="301.38" rx="34.649" ry="34.628" style="" fill="#b0ce6f" data-original="#b0ce6f"></ellipse>
    <path d="M149.567 255.569c27.95 27.935 36 65.183 17.98 83.195-18.021 18.01-55.289 9.966-83.238-17.97-27.95-27.935-36-65.184-17.98-83.195 18.023-18.011 55.288-9.966 83.238 17.97z" style="" fill="#ffc38d" data-original="#ffc38d"></path>
    <path d="M102.769 249.102a9.144 9.144 0 0 1-.001 12.938c-3.575 3.574-9.372 3.575-12.946.001a9.145 9.145 0 0 1 0-12.94c3.576-3.574 9.373-3.574 12.947.001z" style="" fill="#754c24" data-original="#754c24"></path>
    <ellipse cx="391.441" cy="306.416" rx="34.649" ry="34.628" style="" fill="#f48911" data-original="#f48911"></ellipse>
    <path d="M292.765 370.831c-3.936 3.934-10.318 3.934-14.254 0l-47.216-47.193a10.07 10.07 0 0 1 0-14.247l47.217-47.192c3.936-3.935 10.317-3.935 14.255 0l47.217 47.192a10.073 10.073 0 0 1 0 14.247l-47.219 47.193z" style="" fill="#ffc38d" data-original="#ffc38d"></path>
    <path d="M50.882 302.004c8.512 82.768 78.483 147.331 163.543 147.331h83.153c85.06 0 155.032-64.562 163.543-147.331H50.882z" style="" fill="#e0d9af" data-original="#e0d9af"></path>
    <path d="M95.38 302.004H50.882c8.512 82.768 78.483 147.331 163.543 147.331h44.498c-85.06 0-155.031-64.562-163.543-147.331z" style="opacity:0.1;enable-background:new ;" fill="#000000" data-original="#000000"></path>
    <path d="M376.475 82.501h-52.093a7.837 7.837 0 0 1 0-15.674h52.093c14.112 0 25.594-11.474 25.594-25.578.001-14.103-11.48-25.576-25.594-25.576H353.41a7.837 7.837 0 0 1 0-15.673h23.065c22.755 0 41.267 18.505 41.267 41.25.001 22.746-18.511 41.251-41.267 41.251z" style="" fill="#fce9c3" data-original="#fce9c3"></path>
    <path d="M282.124 128.677a7.837 7.837 0 0 1-7.837-7.837v-18.179c0-19.759 16.082-35.834 35.848-35.834h43.649a7.837 7.837 0 0 1 0 15.674h-43.649c-11.125 0-20.175 9.044-20.175 20.16v18.179a7.836 7.836 0 0 1-7.836 7.837z" style="" fill="#fce9c3" data-original="#fce9c3"></path>
    <path d="M170.066 176.143h-59.694c-16.024 0-29.06-13.028-29.06-29.041s13.036-29.041 29.06-29.041h27.468a7.837 7.837 0 0 0 0-15.674h-27.468c-24.666 0-44.733 20.059-44.733 44.714s20.067 44.714 44.733 44.714h59.694a7.836 7.836 0 1 0 0-15.672zM196.861 19.954h-36.386a7.837 7.837 0 0 0 0 15.674h36.386c18.416 0 33.399 14.974 33.399 33.379 0 18.406-14.983 33.38-33.399 33.38h-32.226a7.837 7.837 0 0 0 0 15.674h32.227c27.059 0 49.073-22.006 49.073-49.054s-22.015-49.053-49.074-49.053zM379.753 117.775h-18.718a7.837 7.837 0 0 0 0 15.674h18.718c14.973 0 27.155 12.174 27.155 27.138s-12.181 27.138-27.155 27.138h-52.137a7.837 7.837 0 0 0 0 15.674h52.137c23.616 0 42.828-19.205 42.828-42.812-.001-23.607-19.213-42.812-42.828-42.812z" style="" fill="#f2d8a0" data-original="#f2d8a0" class=""></path>
    <path d="M354.255 493.547c0 5.863-4.755 10.616-10.621 10.616H168.37c-5.867 0-10.621-4.753-10.621-10.616v-5.309c0-5.863 4.755-10.616 10.621-10.616h175.263c5.867 0 10.621 4.753 10.621 10.616v5.309h.001z" style="" fill="#e0d9af" data-original="#e0d9af"></path>
    <path d="M370.888 350.589c16.434 6.808 21.953 12.327 28.761 28.761 6.808-16.434 12.326-21.953 28.761-28.761-16.435-6.808-21.953-12.326-28.761-28.761-6.808 16.435-12.327 21.954-28.761 28.761z" style="" fill="#ffffff" data-original="#ffffff"></path>
    <circle cx="368.997" cy="387.803" r="12.689" style="" fill="#ffffff" data-original="#ffffff"></circle>
    <path d="M481.521 294.167h-49.402c-5.27-17.465-21.511-30.222-40.68-30.222-3.91 0-7.695.54-11.293 1.533l-22.687-22.675c-3.383-3.38-7.882-5.241-12.665-5.241s-9.282 1.861-12.666 5.243l-15.432 15.424-7.18-31.156a7.839 7.839 0 0 0-15.275 3.521l6.589 28.59-2.527-2.526a17.801 17.801 0 0 0-12.666-5.245 17.798 17.798 0 0 0-12.667 5.245l-37.53 37.51h-1.206c-2.386-13.883-11.529-25.48-23.921-31.274l18.338-79.574a6.797 6.797 0 0 1 6.656-5.292h41.384a6.795 6.795 0 0 1 6.654 5.291l4.152 18.017a7.837 7.837 0 0 0 15.273-3.521l-4.15-18.015c-2.367-10.271-11.384-17.446-21.927-17.446h-41.384c-10.543 0-19.561 7.173-21.928 17.446l-10.999 47.725-12.487-12.48a17.802 17.802 0 0 0-12.667-5.245 17.802 17.802 0 0 0-12.667 5.245l-23.216 23.203c-15.779-11.512-33.371-18.092-49.317-18.092-12.646 0-23.449 4.116-31.24 11.902-10.664 10.659-14.346 26.667-10.369 45.074 1.229 5.685 3.175 11.402 5.734 17.037H30.482c-15.784 0-28.625 12.837-28.625 28.615 0 15.778 12.841 28.615 28.625 28.615h24.977c9.648 23.067 24.313 43.958 43.221 61.116 25.087 22.765 56.03 37.436 89.082 42.588l-6.029 14.685h-13.365c-10.178 0-18.458 8.278-18.458 18.453v5.309c0 10.175 8.281 18.453 18.458 18.453h108.531a7.837 7.837 0 0 0 0-15.674H168.37a2.785 2.785 0 0 1-2.785-2.779v-5.309a2.785 2.785 0 0 1 2.785-2.779h175.263a2.785 2.785 0 0 1 2.785 2.779v5.309a2.785 2.785 0 0 1-2.785 2.779h-35.387a7.837 7.837 0 0 0 0 15.674h35.387c10.178 0 18.458-8.278 18.458-18.453v-5.309c0-10.175-8.281-18.453-18.458-18.453h-13.365l-6.029-14.685c33.053-5.153 63.995-19.824 89.082-42.588 18.909-17.157 33.574-38.049 43.221-61.116h24.977c15.783 0 28.625-12.837 28.625-28.615 0-15.779-12.84-28.617-28.623-28.617zM30.482 335.723c-7.141 0-12.952-5.805-12.952-12.941s5.811-12.941 12.952-12.941h13.481a171.301 171.301 0 0 0 5.824 25.882H30.482zm360.957-56.104c10.365 0 19.349 5.924 23.808 14.548h-47.616c4.458-8.625 13.443-14.548 23.808-14.548zm-48.233-25.728a2.202 2.202 0 0 1 1.588-.656c.425 0 1.046.114 1.587.655l19.014 19.005c-6.869 5.346-12.062 12.745-14.636 21.272h-14.923l-16.462-16.454 23.832-23.822zm-59.154 13.852a2.206 2.206 0 0 1 1.587-.656c.424 0 1.044.114 1.587.657l26.439 26.424h-56.051l26.438-26.425zm-65.858 26.424h-36.031c-1.389-4.831-3.25-9.659-5.57-14.416a26.646 26.646 0 0 1 15.785-5.168c12.283-.001 22.657 8.301 25.816 19.584zm-42.551-68.039a2.203 2.203 0 0 1 1.587-.657c.424 0 1.043.114 1.586.657l19.415 19.406-3.105 13.474a42.428 42.428 0 0 0-2.749-.098 42.232 42.232 0 0 0-23.759 7.289 116.844 116.844 0 0 0-15.216-17.841l22.241-22.23zM71.871 243.141c6.049-6.046 14.303-7.315 20.16-7.315 16.717 0 36.156 9.452 51.997 25.285 10.033 10.028 17.529 21.518 21.68 33.054h-56.989l18.151-18.142a7.835 7.835 0 0 0 .003-11.082 7.834 7.834 0 0 0-11.082-.003L86.55 294.166H73.713c-3.776-6.693-6.506-13.569-7.97-20.348-2.815-13.019-.638-23.913 6.128-30.677zm126.806 226.644 5.311-12.938c3.465.209 6.944.325 10.436.325h83.153c3.492 0 6.972-.116 10.436-.325l5.311 12.938H198.677zm204.112-68.881c-28.849 26.177-66.213 40.594-105.211 40.594h-83.153c-38.998 0-76.363-14.416-105.212-40.594-26.484-24.032-43.822-56.102-49.404-91.064h392.382c-5.58 34.963-22.917 67.033-49.402 91.064zm78.732-65.181h-19.306a171.152 171.152 0 0 0 5.824-25.882h13.481c7.142 0 12.951 5.805 12.951 12.941s-5.809 12.941-12.95 12.941z" fill="#000000" data-original="#000000"></path>
  </g>
</svg>